<?xml version="1.0" standalone="no"?><!DOCTYPE svg PUBLIC "-//W3C//DTD SVG 1.1//EN" "http://www.w3.org/Graphics/SVG/1.1/DTD/svg11.dtd"><svg t="1678285929867" class="icon" viewBox="0 0 1024 1024" version="1.1" xmlns="http://www.w3.org/2000/svg" p-id="2765" xmlns:xlink="http://www.w3.org/1999/xlink" width="200" height="200"><path d="M961.870987 319.751465l0-150.640905L64.175625 169.110559l0 652.838655 897.695363 0 0-342.705246c0-11.307533 9.15859-20.466124 20.466124-20.466124 11.2973 0 20.466124 9.15859 20.466124 20.466124l0 363.17137c0 11.2973-9.168824 20.466124-20.466124 20.466124L43.709501 862.881462c-11.307533 0-20.466124-9.168824-20.466124-20.466124l0-693.770903c0-11.307533 9.15859-20.466124 20.466124-20.466124l938.62761 0c11.2973 0 20.466124 9.15859 20.466124 20.466124l0 182.025707c0 6.815219-3.40761 13.190417-9.066493 16.986883l-428.499238 287.589974c-6.753821 4.523013-15.533788 4.635577-22.379707 0.276293l-383.361201-243.587807c-9.537214-6.057973-12.361539-18.706037-6.293333-28.243251 6.057973-9.537214 18.706037-12.361539 28.243251-6.303566l372.074134 236.414431L961.870987 319.751465z" p-id="2766" fill="#ffffff"></path></svg>