<?xml version="1.0" standalone="no"?><!DOCTYPE svg PUBLIC "-//W3C//DTD SVG 1.1//EN" "http://www.w3.org/Graphics/SVG/1.1/DTD/svg11.dtd"><svg t="1678286311729" class="icon" viewBox="0 0 1024 1024" version="1.1" xmlns="http://www.w3.org/2000/svg" p-id="12589" xmlns:xlink="http://www.w3.org/1999/xlink" width="200" height="200"><path d="M642.048 474.112L447.488 337.92c-7.168-6.144-14.336-8.192-19.456-9.216h-1.024c-13.312-2.048-26.624 0-37.888 8.192s-19.456 19.456-21.504 32.768c-9.216 46.08-13.312 95.232-13.312 146.432 0 49.152 4.096 95.232 13.312 139.264 1.024 7.168 3.072 13.312 7.168 20.48l1.024 1.024c10.24 13.312 26.624 21.504 41.984 21.504 9.216 0 19.456-3.072 28.672-8.192l196.608-131.072c2.048-1.024 9.216-6.144 13.312-13.312 8.192-11.264 11.264-25.6 8.192-38.912-4.096-15.36-11.264-26.624-22.528-32.768z m-20.48 47.104l-2.048 2.048-196.608 131.072c-5.12 3.072-11.264 1.024-15.36-3.072v-1.024-3.072c-8.192-40.96-13.312-84.992-13.312-132.096 0-48.128 4.096-94.208 13.312-138.24 1.024-3.072 3.072-5.12 4.096-6.144 1.024-1.024 4.096-2.048 7.168-2.048 1.024 0 1.024 0 2.048 1.024 1.024 0 1.024 1.024 2.048 1.024l197.632 136.192c2.048 2.048 3.072 4.096 4.096 5.12-1.024 4.096-1.024 7.168-3.072 9.216zM512 51.2C258.048 51.2 51.2 258.048 51.2 512s206.848 460.8 460.8 460.8 460.8-206.848 460.8-460.8S765.952 51.2 512 51.2z m0 880.64C280.576 931.84 92.16 743.424 92.16 512S280.576 92.16 512 92.16s419.84 188.416 419.84 419.84-188.416 419.84-419.84 419.84z" p-id="12590" fill="#ffffff"></path></svg>