<?xml version="1.0" standalone="no"?><!DOCTYPE svg PUBLIC "-//W3C//DTD SVG 1.1//EN" "http://www.w3.org/Graphics/SVG/1.1/DTD/svg11.dtd"><svg t="1678454515732" class="icon" viewBox="0 0 1024 1024" version="1.1" xmlns="http://www.w3.org/2000/svg" p-id="1443" xmlns:xlink="http://www.w3.org/1999/xlink" width="200" height="200"><path d="M784.288586 927.31742a48.373219 48.373219 0 1 1 0 96.618466H236.954573a48.373219 48.373219 0 0 1 0-96.618466zM550.86861 14.240922a62.961967 62.961967 0 0 1 10.109747 10.109747l207.313795 259.142244 151.902144-38.391444a63.985739 63.985739 0 0 1 77.934631 78.830431l-120.677104 458.77775a63.985739 63.985739 0 0 1-62.32211 47.989304H206.881276a63.985739 63.985739 0 0 1-62.578053-48.757133L25.289748 305.75995A63.985739 63.985739 0 0 1 110.390781 230.51272L253.718837 283.492913 460.392775 24.350669a63.985739 63.985739 0 0 1 90.475835-10.109747z m-40.183044 102.377183L284.815906 398.4113 133.809562 341.847907l98.154124 392.360552h558.33956l100.585582-381.866891-159.324491 39.79913z" fill="#ffffff" p-id="1444"></path></svg>